<svg width="34" height="29" viewBox="0 0 34 29" fill="none" xmlns="http://www.w3.org/2000/svg">
<path d="M23.5835 4.25003C22.3171 4.24981 21.1011 4.74666 20.1972 5.63371C19.2934 6.52076 18.7737 7.72714 18.7502 8.99336L18.7035 11.6184C18.701 11.7594 18.6687 11.8984 18.6086 12.0261C18.5486 12.1538 18.4622 12.2673 18.3552 12.3593C18.2481 12.4512 18.1228 12.5194 17.9875 12.5595C17.8522 12.5996 17.71 12.6105 17.5702 12.5917L14.9668 12.2367C11.5452 11.77 8.26516 10.195 5.11682 7.57336C4.12182 13.09 6.06682 16.9117 10.7552 19.86L13.6668 21.69C13.8049 21.7769 13.9197 21.8962 14.0011 22.0376C14.0825 22.179 14.128 22.3382 14.1338 22.5012C14.1395 22.6643 14.1053 22.8263 14.0341 22.9731C13.9629 23.1199 13.8568 23.247 13.7252 23.3434L11.0718 25.2834C12.6502 25.3834 14.1485 25.3134 15.3918 25.0667C23.2552 23.4967 28.4835 17.58 28.4835 7.82003C28.4835 7.02336 26.7952 4.25003 23.5835 4.25003ZM15.4168 8.93336C15.4459 7.32678 15.9483 5.76448 16.8611 4.44206C17.7739 3.11965 19.0565 2.09589 20.5483 1.49897C22.0402 0.902052 23.675 0.758494 25.2481 1.08627C26.8211 1.41405 28.2625 2.1986 29.3918 3.34169C30.5768 3.33336 31.5852 3.63336 33.8385 2.26503C33.2818 4.99836 33.0052 6.18669 31.8168 7.81836C31.8168 20.5534 23.9885 26.7484 16.0435 28.3334C10.5985 29.42 2.67682 27.635 0.410156 25.2634C1.56516 25.175 6.26516 24.67 8.98182 22.68C6.68182 21.1634 -2.46484 15.78 3.54682 1.31003C6.36849 4.60503 9.23015 6.84669 12.1302 8.03836C14.0585 8.83003 14.5335 8.81336 15.4185 8.93503L15.4168 8.93336Z" fill="white" fill-opacity="0.5"/>
</svg>
