<svg width="35" height="31" viewBox="0 0 35 31" fill="none" xmlns="http://www.w3.org/2000/svg">
<path fill-rule="evenodd" clip-rule="evenodd" d="M7.64654 18.3668C7.71815 18.3907 7.79179 18.408 7.86654 18.4185C8.33808 19.5296 8.80697 20.6418 9.2732 21.7551C10.1115 23.7585 10.9565 25.8218 11.1415 26.4151C11.3732 27.1451 11.6165 27.6418 11.8832 27.9818C12.0215 28.1551 12.1799 28.3085 12.3665 28.4251C12.4638 28.486 12.5678 28.5352 12.6765 28.5718C13.2099 28.7718 13.6965 28.6885 14.0015 28.5868C14.1805 28.5257 14.3508 28.4417 14.5082 28.3368L14.5165 28.3335L19.2265 25.3968L24.6682 29.5668C24.7482 29.6285 24.8349 29.6801 24.9282 29.7218C25.5815 30.0051 26.2149 30.1051 26.8115 30.0251C27.4049 29.9418 27.8765 29.6935 28.2282 29.4118C28.632 29.0863 28.9539 28.6708 29.1682 28.1985L29.1832 28.1618L29.1882 28.1485L29.1915 28.1418V28.1385L29.1932 28.1368C29.2222 28.0651 29.2445 27.9909 29.2599 27.9151L34.2265 2.87347C34.2422 2.79332 34.25 2.71182 34.2499 2.63014C34.2499 1.89681 33.9732 1.19847 33.3249 0.776806C32.7682 0.41514 32.1499 0.398473 31.7582 0.428473C31.3382 0.461806 30.9482 0.56514 30.6865 0.648473C30.5401 0.694898 30.3955 0.747162 30.2532 0.80514L30.2349 0.813473L2.37821 11.7401L2.37487 11.7418C2.28062 11.7765 2.18777 11.8148 2.09654 11.8568C1.87564 11.9561 1.66374 12.0743 1.46321 12.2101C1.08487 12.4685 0.213206 13.1785 0.36154 14.3518C0.478206 15.2851 1.11821 15.8601 1.50987 16.1368C1.72321 16.2885 1.92654 16.3968 2.07654 16.4685C2.14321 16.5018 2.28654 16.5585 2.34821 16.5851L2.36487 16.5901L7.64654 18.3668ZM31.2099 3.11347H31.2065C31.1922 3.11984 31.1778 3.12596 31.1632 3.13181L3.27321 14.0735C3.25886 14.0793 3.24441 14.0848 3.22987 14.0901L3.21321 14.0951C3.16226 14.1152 3.11221 14.1374 3.06321 14.1618C3.1096 14.1884 3.15745 14.2123 3.20654 14.2335L8.4432 15.9968C8.53679 16.0283 8.6263 16.0709 8.70987 16.1235L26.0049 5.99847L26.0215 5.99014C26.0887 5.94932 26.1577 5.9115 26.2282 5.87681C26.3482 5.81514 26.5399 5.72514 26.7565 5.65847C26.9065 5.61181 27.3515 5.48014 27.8315 5.63514C28.0861 5.71539 28.313 5.86562 28.4863 6.06867C28.6596 6.27173 28.7723 6.51942 28.8115 6.78347C28.8736 7.01473 28.8753 7.25803 28.8165 7.49014C28.6999 7.94847 28.3799 8.30514 28.0865 8.57847C27.8365 8.81181 24.5949 11.9385 21.3965 15.0251L17.0415 19.2251L16.2665 19.9751L26.0532 27.4785C26.1853 27.5339 26.3288 27.5568 26.4715 27.5451C26.5435 27.5354 26.6111 27.5053 26.6665 27.4585C26.7341 27.4014 26.7921 27.3339 26.8382 27.2585L26.8415 27.2568L31.6582 2.96847C31.5065 3.00497 31.3577 3.05288 31.2132 3.11181L31.2099 3.11347ZM17.1082 23.7701L15.1549 22.2735L14.6815 25.2818L17.1082 23.7701ZM13.3632 19.3035L15.3049 17.4285L19.6599 13.2251L21.2815 11.6618L10.4149 18.0235L10.4732 18.1601C11.1585 19.7792 11.8363 21.4014 12.5065 23.0268L12.9782 20.0268C13.0209 19.7486 13.1566 19.4947 13.3632 19.3035Z" fill="white" fill-opacity="0.5"/>
</svg>
