<svg width="36" height="28" viewBox="0 0 36 28" fill="none" xmlns="http://www.w3.org/2000/svg">
<path d="M30.1165 2.88325C27.8999 1.84991 25.4999 1.09991 22.9999 0.666581C22.978 0.66588 22.9561 0.669993 22.936 0.678632C22.9158 0.687271 22.8978 0.700225 22.8832 0.716581C22.5832 1.26658 22.2332 1.98325 21.9999 2.53325C19.3482 2.13325 16.6515 2.13325 13.9999 2.53325C13.7665 1.96658 13.4165 1.26658 13.0999 0.716581C13.0832 0.683248 13.0332 0.666581 12.9832 0.666581C10.4832 1.09991 8.09987 1.84991 5.86654 2.88325C5.84987 2.88325 5.8332 2.89991 5.81654 2.91658C1.2832 9.69991 0.0332032 16.2999 0.64987 22.8332C0.64987 22.8666 0.666536 22.8999 0.69987 22.9166C3.69987 25.1166 6.5832 26.4499 9.4332 27.3332C9.4832 27.3499 9.5332 27.3332 9.54987 27.2999C10.2165 26.3832 10.8165 25.4166 11.3332 24.3999C11.3665 24.3332 11.3332 24.2666 11.2665 24.2499C10.3165 23.8832 9.41654 23.4499 8.5332 22.9499C8.46654 22.9166 8.46654 22.8166 8.51654 22.7666C8.69987 22.6332 8.8832 22.4832 9.06654 22.3499C9.09987 22.3166 9.14987 22.3166 9.1832 22.3332C14.9165 24.9499 21.0999 24.9499 26.7665 22.3332C26.7999 22.3166 26.8499 22.3166 26.8832 22.3499C27.0665 22.4999 27.2499 22.6332 27.4332 22.7832C27.4999 22.8332 27.4999 22.9332 27.4165 22.9666C26.5499 23.4832 25.6332 23.8999 24.6832 24.2666C24.6165 24.2832 24.5999 24.3666 24.6165 24.4166C25.1499 25.4332 25.7499 26.3999 26.3999 27.3166C26.4499 27.3332 26.4999 27.3499 26.5499 27.3332C29.4165 26.4499 32.2999 25.1166 35.2999 22.9166C35.3332 22.8999 35.3499 22.8666 35.3499 22.8332C36.0832 15.2832 34.1332 8.73325 30.1832 2.91658C30.1665 2.89991 30.1499 2.88325 30.1165 2.88325ZM12.1999 18.8499C10.4832 18.8499 9.04987 17.2666 9.04987 15.3166C9.04987 13.3666 10.4499 11.7832 12.1999 11.7832C13.9665 11.7832 15.3665 13.3832 15.3499 15.3166C15.3499 17.2666 13.9499 18.8499 12.1999 18.8499ZM23.8165 18.8499C22.0999 18.8499 20.6665 17.2666 20.6665 15.3166C20.6665 13.3666 22.0665 11.7832 23.8165 11.7832C25.5832 11.7832 26.9832 13.3832 26.9665 15.3166C26.9665 17.2666 25.5832 18.8499 23.8165 18.8499Z" fill="white"/>
</svg>
