<svg width="34" height="34" viewBox="0 0 34 34" fill="none" xmlns="http://www.w3.org/2000/svg">
<path d="M25.9002 6.10016C25.5046 6.10016 25.1179 6.21746 24.789 6.43722C24.4601 6.65699 24.2038 6.96934 24.0524 7.3348C23.901 7.70025 23.8614 8.10238 23.9386 8.49034C24.0158 8.87831 24.2062 9.23467 24.4859 9.51438C24.7657 9.79408 25.122 9.98456 25.51 10.0617C25.8979 10.1389 26.3001 10.0993 26.6655 9.94792C27.031 9.79655 27.3433 9.5402 27.5631 9.2113C27.7829 8.88241 27.9002 8.49572 27.9002 8.10016C27.9002 7.56973 27.6894 7.06102 27.3144 6.68595C26.9393 6.31088 26.4306 6.10016 25.9002 6.10016ZM33.5668 10.1335C33.5344 8.75066 33.2754 7.3825 32.8002 6.0835C32.3764 4.97205 31.7168 3.96563 30.8668 3.1335C30.0415 2.27921 29.0328 1.62379 27.9168 1.21683C26.6213 0.727097 25.2516 0.462179 23.8668 0.433496C22.1002 0.333496 21.5335 0.333496 17.0002 0.333496C12.4668 0.333496 11.9002 0.333496 10.1335 0.433496C8.74875 0.462179 7.37907 0.727097 6.0835 1.21683C4.96962 1.62791 3.96172 2.28276 3.1335 3.1335C2.27921 3.95879 1.62379 4.96756 1.21683 6.0835C0.727097 7.37907 0.462179 8.74875 0.433496 10.1335C0.333496 11.9002 0.333496 12.4668 0.333496 17.0002C0.333496 21.5335 0.333496 22.1002 0.433496 23.8668C0.462179 25.2516 0.727097 26.6213 1.21683 27.9168C1.62379 29.0328 2.27921 30.0415 3.1335 30.8668C3.96172 31.7176 4.96962 32.3724 6.0835 32.7835C7.37907 33.2732 8.74875 33.5381 10.1335 33.5668C11.9002 33.6668 12.4668 33.6668 17.0002 33.6668C21.5335 33.6668 22.1002 33.6668 23.8668 33.5668C25.2516 33.5381 26.6213 33.2732 27.9168 32.7835C29.0328 32.3765 30.0415 31.7211 30.8668 30.8668C31.7206 30.0378 32.3807 29.0305 32.8002 27.9168C33.2754 26.6178 33.5344 25.2497 33.5668 23.8668C33.5668 22.1002 33.6668 21.5335 33.6668 17.0002C33.6668 12.4668 33.6668 11.9002 33.5668 10.1335ZM30.5668 23.6668C30.5547 24.7248 30.3631 25.773 30.0002 26.7668C29.7341 27.4922 29.3066 28.1475 28.7502 28.6835C28.2096 29.2343 27.5555 29.6609 26.8335 29.9335C25.8397 30.2964 24.7914 30.488 23.7335 30.5002C22.0668 30.5835 21.4502 30.6002 17.0668 30.6002C12.6835 30.6002 12.0668 30.6002 10.4002 30.5002C9.30165 30.5207 8.20782 30.3516 7.16683 30.0002C6.47647 29.7136 5.85242 29.2881 5.3335 28.7502C4.78031 28.2147 4.35823 27.5588 4.10016 26.8335C3.69326 25.8254 3.46757 24.7534 3.4335 23.6668C3.4335 22.0002 3.3335 21.3835 3.3335 17.0002C3.3335 12.6168 3.3335 12.0002 3.4335 10.3335C3.44097 9.25192 3.63841 8.18007 4.01683 7.16683C4.31024 6.46335 4.7606 5.83626 5.3335 5.3335C5.83985 4.76044 6.46564 4.30532 7.16683 4.00016C8.18275 3.63357 9.25349 3.44196 10.3335 3.4335C12.0002 3.4335 12.6168 3.3335 17.0002 3.3335C21.3835 3.3335 22.0002 3.3335 23.6668 3.4335C24.7248 3.44563 25.773 3.63724 26.7668 4.00016C27.5242 4.28125 28.204 4.73824 28.7502 5.3335C29.2963 5.84546 29.7231 6.47138 30.0002 7.16683C30.3706 8.18172 30.5623 9.25313 30.5668 10.3335C30.6502 12.0002 30.6668 12.6168 30.6668 17.0002C30.6668 21.3835 30.6502 22.0002 30.5668 23.6668ZM17.0002 8.45016C15.3098 8.45346 13.6584 8.95771 12.2546 9.89919C10.8507 10.8407 9.75746 12.1772 9.11289 13.7398C8.46831 15.3023 8.30137 17.0209 8.63315 18.6784C8.96494 20.3358 9.78056 21.8577 10.977 23.0518C12.1734 24.2459 13.6968 25.0585 15.3549 25.3871C17.013 25.7156 18.7313 25.5453 20.2926 24.8977C21.8539 24.2501 23.1883 23.1542 24.127 21.7486C25.0658 20.3429 25.5668 18.6905 25.5668 17.0002C25.569 15.8753 25.3488 14.7612 24.9189 13.7218C24.489 12.6823 23.8578 11.7382 23.0616 10.9436C22.2655 10.149 21.3201 9.51963 20.2798 9.09171C19.2396 8.6638 18.125 8.44577 17.0002 8.45016ZM17.0002 22.5502C15.9025 22.5502 14.8294 22.2247 13.9167 21.6148C13.0041 21.005 12.2927 20.1382 11.8726 19.1241C11.4526 18.1099 11.3427 16.994 11.5568 15.9174C11.771 14.8408 12.2995 13.8519 13.0757 13.0757C13.8519 12.2995 14.8408 11.771 15.9174 11.5568C16.994 11.3427 18.1099 11.4526 19.1241 11.8726C20.1382 12.2927 21.005 13.0041 21.6148 13.9167C22.2247 14.8294 22.5502 15.9025 22.5502 17.0002C22.5502 17.729 22.4066 18.4507 22.1277 19.1241C21.8488 19.7974 21.44 20.4092 20.9246 20.9246C20.4092 21.44 19.7974 21.8488 19.1241 22.1277C18.4507 22.4066 17.729 22.5502 17.0002 22.5502Z" fill="white" fill-opacity="0.5"/>
</svg>
